<svg xmlns="http://www.w3.org/2000/svg" width="11" height="12"><path d="M10.505 2.406V11.2a.449.449 0 11-.898 0V2.406c0-.743-.604-1.346-1.345-1.346H5.674c-.741 0-1.346.603-1.346 1.346v1.319a3.1 3.1 0 012.647 3.063.448.448 0 01-.449.447H1.232a.448.448 0 01-.448-.447 3.1 3.1 0 012.647-3.063V2.406A2.245 2.245 0 015.674.163h2.588a2.246 2.246 0 012.243 2.243zM3.88 4.59a2.202 2.202 0 00-2.153 1.749h4.305a2.202 2.202 0 00-2.152-1.75zm.448 3.742v.674a.448.448 0 11-.897 0V8.33a.449.449 0 01.897 0zm-.005 2.195v.673a.449.449 0 11-.897 0v-.673a.449.449 0 11.897 0zM2.566 8.331v.674a.449.449 0 01-.897 0V8.33a.449.449 0 01.897 0zm-.005 2.195v.673a.449.449 0 11-.898 0v-.673a.45.45 0 01.898 0zm3.524-2.195v.674a.449.449 0 01-.898 0V8.33a.449.449 0 01.898 0zm-.006 2.195v.673a.448.448 0 11-.896 0v-.673a.449.449 0 01.897 0z"/></svg>