<svg xmlns="http://www.w3.org/2000/svg" width="180" height="86" viewBox="0 0 180 86"><g><g><path fill="#1f373d" d="M179.63 61.253v23.232H87.054V65.302l45.584-46.993c4.105-4.105 7.361-8.123 9.767-12.056 1.241-2.03 2.157-3.924 2.758-5.688h28.538c-1.021 3.443-2.611 6.95-4.807 10.528-4.109 6.688-9.917 13.904-17.424 21.648l-28.336 28.512zM74.349.565c1.54 6.665 2.323 14.096 2.323 22.32 0 20.064-4.637 35.525-13.904 46.376-9.271 10.854-22.529 16.28-39.776 16.28-8.647 0-16.297-1.348-22.951-4.039V45.785c.94 3.32 2.133 6.165 3.59 8.517 4.106 6.63 10.56 9.943 19.361 9.943 8.564 0 14.9-3.314 19.008-9.943 4.105-6.628 6.16-17.1 6.16-31.417 0-8.954-.793-16.392-2.374-22.32z"/></g></g></svg>