<svg xmlns="http://www.w3.org/2000/svg" width="179" height="86" viewBox="0 0 179 86"><g><g><path fill="#1f373d" d="M178.749 45.941c0 7.744-2.023 14.639-6.071 20.68-4.048 6.045-9.8 10.736-17.248 14.08-7.454 3.344-16.165 5.016-26.136 5.016-8.566 0-17.103-1.32-25.609-3.96-8.508-2.64-15.694-6.13-21.56-10.472L92.86 50.693c5.044 4.224 10.5 7.452 16.368 9.68 5.867 2.23 11.85 3.345 17.953 3.345 7.744 0 13.727-1.554 17.952-4.665 4.223-3.107 6.336-7.42 6.336-12.936 0-5.514-2.113-9.707-6.336-12.584-4.225-2.874-10.269-4.312-18.128-4.312h-19.889v-15.84L120.39.565h28.029l-11.38 10.704 6.335.88c10.794 1.408 19.388 5.047 25.784 10.912 6.394 5.868 9.592 13.495 9.592 22.88zM74.349.565c1.539 6.665 2.323 14.096 2.323 22.32 0 20.064-4.637 35.525-13.904 46.376-9.271 10.854-22.529 16.28-39.776 16.28-8.647 0-16.298-1.348-22.952-4.039V45.785c.94 3.32 2.135 6.165 3.592 8.517 4.105 6.63 10.56 9.943 19.36 9.943 8.564 0 14.9-3.314 19.008-9.943 4.105-6.628 6.16-17.1 6.16-31.417 0-8.954-.792-16.392-2.374-22.32z"/></g></g></svg>